<svg width="25" height="25" viewBox="0 0 16 16" xmlns="http://www.w3.org/2000/svg"><path d="M11.006.017c-.111.038-.415.396-2.844.863-.447.072-.89.157-1.332.253-.293.062-.585.12-.873.194-.266.067-.54.127-.8.211-.252.08-.5.163-.748.258a4.78 4.78 0 00-1.33.787 4.088 4.088 0 00-.657.683 4.839 4.839 0 00-.353.574c-.1.19-.17.416-.172.634-.003.642.401 1.18.868 1.58.153.13.316.25.481.365a11.5 11.5 0 001.567.902c.56.268 1.123.525 1.693.77.54.231 1.09.427 1.647.613l.481.16c.505.168 1.02.324 1.52.507.311.113.643.22.954.361.324.147.66.294.945.505.19.14.356.314.478.517.12.2.194.429.2.663.007.224-.058.443-.178.633-.313.492-.857.828-1.382 1.051-.784.334-1.587.622-2.405.864-.466.137-.931.274-1.4.397-.472.123-.952.253-1.428.373a45.2 45.2 0 01-1.426.332 214.366 214.366 0 01-1.306.277c-.34.075-.681.149-1.024.222-.39.087-.779.17-1.168.256-.113.025-.226.056-.34.081-.1.024-.478.112-.197.095.389-.022 1.429-.113 3.65-.412.806-.134 1.614-.25 2.42-.382a42.734 42.734 0 002.995-.596 18.35 18.35 0 001.4-.38c.779-.244 2.029-.673 2.324-.802 1.13-.498 1.835-.873 2.202-1.766a2.14 2.14 0 00.145-1.012 2.307 2.307 0 00-.304-.895 3.178 3.178 0 00-.587-.683 6.39 6.39 0 00-1.369-.942 8.613 8.613 0 00-.426-.209 12.54 12.54 0 00-1.313-.526c-.678-.233-1.366-.442-2.048-.666a14.38 14.38 0 01-1.14-.423 9.046 9.046 0 01-.468-.212 7.132 7.132 0 01-.53-.288c-.214-.13-.564-.354-.466-.657.068-.217.302-.301.494-.379.177-.072.365-.123.549-.171.563-.145 1.139-.244 1.707-.366.167-.035.334-.072.501-.111.444-.104.9-.183 1.323-.352.364-.143.83-.373.965-.773.195-.584-.026-1.215-.344-1.708-.115-.176-.233-.35-.355-.523-.167-.235-.351-.456-.532-.68-.081-.101-.18-.093-.264-.067z" fill="#FFFF"/></svg>